<?xml version="1.0" standalone="no"?>
<!DOCTYPE svg PUBLIC "-//W3C//DTD SVG 20010904//EN"
 "http://www.w3.org/TR/2001/REC-SVG-20010904/DTD/svg10.dtd">
<svg version="1.0" xmlns="http://www.w3.org/2000/svg"
 width="1080.000000pt" height="1080.000000pt" viewBox="0 0 1080.000000 1080.000000"
 preserveAspectRatio="xMidYMid meet">
<metadata>
Created by potrace 1.14, written by Peter Selinger 2001-2017
</metadata>
<g transform="translate(0.000000,1080.000000) scale(0.100000,-0.100000)"
fill="#000000" stroke="none">
<path d="M2956 10768 c-10 -18 -49 -94 -88 -168 -39 -74 -84 -162 -99 -195
-16 -33 -34 -68 -39 -77 -75 -132 -401 -1128 -450 -1373 -6 -33 -18 -82 -25
-110 -7 -27 -21 -84 -29 -125 -9 -41 -25 -113 -36 -160 -10 -47 -33 -157 -50
-245 -17 -88 -34 -173 -38 -190 -6 -25 -30 -43 -142 -112 -74 -45 -169 -101
-210 -124 -124 -69 -299 -187 -354 -237 -156 -143 -265 -266 -317 -357 -53
-92 -121 -259 -117 -286 3 -18 8 -10 21 33 79 261 349 566 682 772 235 144
410 245 417 238 4 -4 1 -66 -7 -137 -8 -72 -18 -184 -21 -250 -8 -133 -23
-185 -81 -275 -20 -30 -56 -85 -80 -122 -49 -75 -195 -261 -258 -329 -53 -57
-128 -119 -188 -155 -27 -16 -61 -37 -75 -46 -26 -16 -62 -24 -62 -13 0 3 21
47 46 97 77 153 173 288 312 441 30 32 50 63 46 69 -14 21 -163 -154 -277
-324 -161 -242 -256 -486 -322 -825 -26 -137 -48 -394 -41 -498 15 -243 75
-575 114 -630 l14 -20 -6 20 c-29 103 -64 315 -77 465 -21 248 -5 498 47 730
8 36 20 88 26 115 17 77 64 218 87 263 16 31 33 46 73 65 29 14 70 38 90 54
20 15 56 42 78 58 114 82 357 373 469 560 50 85 57 66 43 -117 -6 -84 -17
-241 -23 -348 l-11 -195 -40 -67 c-46 -77 -83 -181 -91 -253 l-6 -50 14 40 c7
22 21 65 30 95 25 84 65 168 83 175 14 5 14 -20 9 -237 -4 -134 -11 -272 -17
-308 -13 -86 -57 -546 -66 -688 -4 -62 -10 -110 -14 -105 -11 12 -38 158 -55
298 -26 208 -28 337 -11 499 17 158 16 200 -3 92 -25 -141 -32 -279 -21 -381
5 -55 17 -161 25 -235 8 -74 25 -178 37 -230 17 -71 22 -122 21 -200 -9 -564
-4 -1051 11 -1240 19 -236 57 -601 86 -840 20 -168 82 -738 102 -953 11 -106
18 -131 31 -109 5 7 -19 283 -27 318 -3 11 -15 114 -26 230 -11 115 -29 281
-40 369 -30 254 -68 615 -85 800 -58 645 -46 1308 39 2195 26 269 33 389 41
745 3 121 12 328 20 460 8 132 22 364 30 515 8 157 23 322 34 385 10 61 22
134 26 164 12 99 92 481 139 661 8 30 22 89 31 130 21 95 58 233 90 330 13 41
54 170 89 285 36 116 74 235 86 265 12 30 33 91 47 135 14 44 31 87 38 95 7 8
25 53 40 100 25 77 150 339 254 533 23 42 38 77 33 77 -5 0 -17 -15 -26 -32z"/>
<path d="M3550 10792 c0 -4 11 -23 24 -43 44 -64 97 -169 91 -179 -3 -6 -2
-10 3 -10 5 0 17 -18 28 -40 10 -22 22 -40 25 -40 4 0 10 -11 13 -24 3 -13 9
-31 12 -40 4 -11 1 -16 -11 -16 -27 0 -45 26 -47 69 -1 33 -5 41 -20 41 -10 0
-18 5 -18 10 0 6 -11 10 -24 10 -13 0 -27 6 -30 13 -4 6 -4 -13 -2 -43 2 -30
1 -47 -1 -37 -7 27 -23 20 -23 -10 0 -30 -15 -21 -22 12 -3 11 -8 -16 -13 -60
-20 -203 27 -825 75 -980 5 -16 19 -62 30 -101 14 -45 27 -71 36 -71 8 0 14 5
14 11 0 6 5 4 10 -4 9 -13 10 -13 11 0 1 8 1 19 0 24 -3 13 20 36 30 31 4 -3
6 4 4 16 -2 12 2 28 10 36 13 12 14 9 10 -32 -2 -25 -11 -52 -19 -60 -8 -8
-17 -28 -21 -45 -4 -16 -11 -32 -16 -35 -13 -9 -70 -125 -60 -125 14 0 141
206 141 230 0 7 6 26 14 43 43 97 157 525 163 614 3 40 11 77 17 81 6 5 49 24
96 42 47 18 94 36 105 41 11 4 84 27 163 50 78 23 140 44 138 46 -8 8 -267
-67 -346 -99 -103 -42 -171 -60 -186 -47 -6 5 -19 31 -29 57 -17 45 -123 259
-164 332 -11 19 -38 73 -60 120 -51 111 -151 251 -151 212z m246 -476 c-2 -6
-5 -4 -5 5 -1 9 -8 22 -16 29 -8 7 -15 20 -15 29 0 9 9 2 21 -18 11 -18 18
-38 15 -45z m32 -75 c-13 -4 -15 0 -23 34 l-7 30 20 -30 c10 -16 15 -32 10
-34z m19 -43 c-3 -8 -6 -5 -6 6 -1 11 2 17 5 13 3 -3 4 -12 1 -19z m56 -98 c3
-11 2 -20 -3 -20 -8 0 -20 24 -20 41 0 17 17 1 23 -21z m-346 -52 c-3 -7 -5
-2 -5 12 0 14 2 19 5 13 2 -7 2 -19 0 -25z m380 -110 c-2 -13 -4 -3 -4 22 0
25 2 35 4 23 2 -13 2 -33 0 -45z m-10 -60 c-3 -7 -5 -2 -5 12 0 14 2 19 5 13
2 -7 2 -19 0 -25z m-31 -110 c-9 -45 -47 -170 -51 -166 -2 2 3 30 12 63 8 33
17 71 20 85 7 38 12 50 19 50 4 0 4 -15 0 -32z m-81 -292 c-4 -21 -13 -36 -21
-36 -8 0 -14 -5 -14 -12 0 -6 -3 -8 -7 -5 -3 4 1 15 10 24 8 10 19 31 22 46
10 40 18 26 10 -17z m-15 -70 c0 -3 -4 -8 -10 -11 -5 -3 -10 -1 -10 4 0 6 5
11 10 11 6 0 10 -2 10 -4z"/>
<path d="M10212 10793 c8 -16 79 -169 87 -188 5 -11 22 -51 39 -90 16 -38 42
-104 58 -145 28 -75 44 -105 44 -81 0 42 -204 511 -223 511 -5 0 -7 -3 -5 -7z"/>
<path d="M10397 10783 c4 -10 48 -101 99 -203 128 -260 169 -347 265 -562 37
-84 51 -88 25 -8 -19 57 -19 60 -7 60 5 0 12 -8 14 -17 3 -10 4 -6 3 9 -2 27
-16 53 -16 30 0 -7 -3 -12 -8 -12 -8 0 -62 86 -62 101 0 5 -18 49 -41 97 -22
48 -50 107 -61 132 -78 174 -191 390 -203 390 -10 0 -12 -6 -8 -17z"/>
<path d="M10553 10793 c6 -10 -19 -34 -27 -26 -3 4 -6 -6 -6 -20 0 -20 5 -27
20 -28 11 -1 26 -2 32 -3 8 0 13 -16 13 -37 0 -28 -4 -35 -20 -35 -12 1 -21
-7 -23 -19 -2 -11 -1 -17 3 -13 9 9 57 -15 75 -38 8 -9 13 -29 12 -44 -2 -15
4 -34 13 -44 14 -14 14 -16 1 -16 -8 0 -18 5 -21 10 -3 6 -10 10 -16 10 -5 0
-1 -8 9 -18 9 -11 20 -17 23 -15 11 5 23 -29 24 -62 0 -22 4 -29 16 -27 12 2
18 -9 23 -40 13 -92 21 -124 28 -105 10 23 28 22 28 -2 0 -11 5 -23 11 -26 5
-4 7 -19 4 -34 -4 -20 -2 -28 9 -28 12 0 15 37 15 244 l1 243 -31 78 c-38 92
-45 102 -72 102 -16 0 -18 -3 -9 -12 7 -7 12 -18 12 -26 0 -12 -3 -12 -15 -2
-8 7 -15 19 -15 26 0 10 -16 14 -61 14 -33 0 -58 -3 -56 -7z m113 -50 c-4 -4
-11 -1 -16 7 -16 25 -11 35 7 17 9 -9 13 -20 9 -24z m74 -102 c0 -46 -9 -35
-15 20 -4 31 -2 40 5 29 5 -8 10 -30 10 -49z m30 -47 c0 -8 -4 -12 -10 -9 -5
3 -10 10 -10 16 0 5 5 9 10 9 6 0 10 -7 10 -16z m20 -76 c0 -5 -4 -8 -10 -8
-5 0 -10 10 -10 23 0 18 2 19 10 7 5 -8 10 -18 10 -22z"/>
<path d="M3421 10764 c0 -11 3 -14 6 -6 3 7 2 16 -1 19 -3 4 -6 -2 -5 -13z"/>
<path d="M10500 10704 c0 -6 7 -19 15 -30 8 -10 14 -14 14 -9 0 6 -6 19 -14
29 -8 11 -15 15 -15 10z"/>
<path d="M10550 10684 c0 -8 5 -12 10 -9 6 3 10 10 10 16 0 5 -4 9 -10 9 -5 0
-10 -7 -10 -16z"/>
<path d="M3401 10654 c0 -11 3 -14 6 -6 3 7 2 16 -1 19 -3 4 -6 -2 -5 -13z"/>
<path d="M3392 10610 c0 -14 2 -19 5 -12 2 6 2 18 0 25 -3 6 -5 1 -5 -13z"/>
<path d="M3601 10594 c0 -11 3 -14 6 -6 3 7 2 16 -1 19 -3 4 -6 -2 -5 -13z"/>
<path d="M10590 10550 c0 -5 5 -10 10 -10 6 0 10 5 10 10 0 6 -4 10 -10 10 -5
0 -10 -4 -10 -10z"/>
<path d="M3366 10483 c-25 -81 -35 -443 -17 -618 15 -146 14 -163 -11 -183
-11 -9 -28 -24 -37 -32 -9 -8 -38 -32 -64 -53 -46 -37 -213 -234 -205 -242 2
-2 25 22 51 53 26 32 81 91 123 132 72 71 76 74 90 56 8 -11 14 -31 14 -45 1
-14 7 -53 15 -86 13 -52 14 -54 10 -15 -3 25 -8 82 -11 127 -7 81 -6 83 17 92
13 5 25 8 26 7 0 0 4 -41 7 -91 6 -92 21 -241 32 -307 5 -30 3 -38 -10 -38
-15 0 -25 25 -46 120 l-10 45 5 -51 c4 -60 32 -134 50 -134 20 0 38 28 30 47
-6 16 -35 219 -35 251 0 38 21 -3 59 -115 41 -119 108 -261 146 -308 16 -19
16 -19 10 9 -3 17 -15 42 -25 56 -27 38 -82 179 -74 192 4 6 10 5 15 -3 7 -11
9 -10 9 4 0 14 -5 17 -20 12 -24 -8 -26 3 -4 20 13 9 14 16 7 31 -6 10 -14 42
-18 69 -4 28 -12 56 -18 64 -6 7 -14 34 -18 60 l-6 46 -2 -50 c0 -27 3 -56 8
-64 10 -16 3 -44 -9 -36 -5 3 -6 14 -3 25 3 12 0 20 -7 20 -7 0 -10 7 -6 17 4
9 3 19 -2 22 -13 9 -23 69 -12 76 6 3 10 -4 11 -17 1 -19 2 -18 8 7 8 34 -9
185 -21 185 -4 0 -8 -27 -8 -60 0 -33 -4 -60 -10 -60 -5 0 -10 24 -10 53 0 28
-5 72 -11 96 -12 54 -15 387 -5 529 8 95 5 125 -8 85z m61 -795 c-3 -8 -6 -5
-6 6 -1 11 2 17 5 13 3 -3 4 -12 1 -19z m40 -220 c-3 -8 -6 -5 -6 6 -1 11 2
17 5 13 3 -3 4 -12 1 -19z m22 -61 c0 -21 -1 -21 -9 -2 -12 28 -12 37 0 30 6
-3 10 -16 9 -28z"/>
<path d="M3700 10459 c0 -8 7 -24 16 -35 14 -18 15 -18 8 6 -8 31 -24 50 -24
29z"/>
<path d="M10605 10450 c3 -5 8 -10 11 -10 2 0 4 5 4 10 0 6 -5 10 -11 10 -5 0
-7 -4 -4 -10z"/>
<path d="M8483 10353 c-10 -15 -21 -32 -26 -38 -11 -14 -147 -246 -147 -251 0
-2 -15 -27 -33 -56 -19 -29 -37 -62 -41 -73 -4 -11 -24 -49 -46 -85 -21 -36
-55 -112 -76 -169 -35 -96 -57 -127 -73 -104 -9 14 -172 105 -178 100 -5 -6
15 -20 108 -70 91 -50 94 -55 78 -119 -21 -80 -18 -500 5 -643 20 -128 21
-134 52 -243 15 -54 32 -90 46 -102 13 -11 25 -19 28 -19 3 0 42 55 87 122 88
132 196 369 229 504 9 37 20 72 24 76 12 14 40 -5 76 -51 53 -70 51 -83 -80
-453 -31 -87 -32 -98 -19 -122 7 -15 20 -27 27 -27 14 0 88 168 126 285 12 39
26 75 30 80 4 6 13 27 19 48 7 20 19 37 26 37 7 0 44 -34 82 -76 37 -42 80
-88 94 -104 106 -111 390 -521 507 -730 77 -140 222 -423 222 -435 0 -2 11
-29 25 -58 44 -97 93 -224 113 -294 11 -37 23 -76 27 -85 4 -11 3 -18 -5 -18
-11 0 -38 24 -199 176 -47 45 -102 95 -121 110 -19 16 -71 60 -115 99 -45 38
-112 97 -150 130 -38 33 -119 105 -178 160 -60 55 -164 144 -231 198 -66 54
-130 106 -141 115 -11 10 -61 43 -111 75 -129 81 -129 81 -314 -43 -30 -20
-87 -53 -127 -72 -84 -43 -90 -41 -122 47 -30 82 -78 209 -103 275 -11 30 -47
110 -78 177 -51 107 -63 125 -101 149 -60 37 -137 74 -244 117 -49 19 -126 50
-170 67 -44 18 -118 46 -165 62 -47 16 -101 36 -120 45 -110 52 -488 171 -605
192 -33 6 -113 22 -177 35 -64 14 -168 30 -230 35 -97 9 -270 31 -573 72 -126
17 -447 40 -605 44 -180 4 -166 -1 45 -15 83 -6 218 -15 300 -21 149 -10 325
-30 440 -49 99 -17 282 -39 416 -50 157 -13 379 -57 549 -109 245 -74 374
-117 430 -143 36 -16 103 -43 149 -60 46 -16 122 -45 170 -65 47 -20 128 -53
179 -74 108 -44 210 -99 234 -126 32 -35 152 -311 219 -503 38 -108 62 -150
87 -150 32 0 129 51 247 130 119 81 141 88 186 64 56 -28 173 -110 239 -166
34 -29 75 -62 90 -73 15 -11 55 -45 87 -75 33 -30 88 -80 123 -110 36 -30 94
-82 130 -115 64 -59 238 -211 309 -270 39 -32 89 -77 216 -196 97 -91 147
-129 167 -129 14 0 14 7 -3 58 -48 144 -89 258 -98 274 -6 10 -11 22 -11 28 0
27 -198 427 -300 605 -13 22 -34 60 -48 85 -14 25 -28 47 -32 50 -4 3 -15 19
-24 37 -9 18 -34 58 -56 90 -22 32 -46 66 -53 76 -26 40 -202 275 -245 327
-53 66 -83 99 -275 303 l-150 159 7 151 c3 84 11 230 17 325 13 192 6 532 -11
604 -16 64 -33 77 -57 41z m36 -22 c19 -34 26 -184 19 -371 -7 -185 -9 -220
-24 -380 l-9 -85 -6 89 c-4 56 -11 91 -19 96 -11 7 -10 17 4 54 10 25 15 52
13 59 -3 6 -6 1 -6 -13 -1 -20 -3 -22 -11 -10 -8 12 -10 9 -10 -12 0 -15 -4
-38 -9 -51 -8 -20 -6 -27 5 -31 11 -4 14 -16 10 -43 -4 -28 -3 -31 2 -13 6 18
10 -1 15 -70 3 -52 9 -108 12 -125 5 -23 4 -26 -4 -15 -6 8 -11 29 -11 45 0
23 -3 27 -10 15 -9 -13 -12 -12 -25 4 -17 22 -20 82 -5 91 12 7 13 55 2 55
-10 0 -32 -68 -32 -99 0 -12 -4 -29 -9 -39 -5 -9 -14 -51 -20 -92 -6 -41 -15
-97 -21 -125 -6 -27 -16 -89 -22 -137 -6 -49 -15 -88 -20 -88 -4 0 -8 -29 -8
-64 0 -36 -4 -67 -9 -70 -4 -3 -6 -29 -4 -58 2 -39 1 -48 -6 -33 -5 11 -10 16
-11 10 -1 -5 -4 -28 -6 -49 -5 -40 -5 -40 16 -21 13 12 20 14 20 5 0 -25 -107
-210 -140 -242 -17 -16 -19 -15 -29 10 -5 15 -13 45 -17 67 -3 22 -13 60 -20
84 -8 24 -17 74 -20 110 -3 36 -11 102 -19 146 -16 96 -30 329 -18 322 4 -3 8
45 9 106 0 95 4 122 26 177 26 69 58 94 58 46 0 -14 -5 -28 -11 -32 -9 -5 -10
1 -5 22 5 19 4 26 -2 19 -6 -5 -20 -55 -32 -110 -18 -83 -22 -135 -23 -308 -1
-148 2 -210 11 -215 6 -4 14 -28 17 -52 10 -75 15 -91 25 -85 6 3 10 -1 10 -9
0 -9 -7 -16 -15 -16 -8 0 -15 -4 -15 -10 0 -5 7 -10 15 -10 9 0 15 -9 15 -24
0 -13 3 -33 7 -43 6 -16 5 -17 -12 -3 -17 14 -18 13 -12 -3 4 -10 7 -23 7 -28
0 -11 11 -11 28 0 9 5 18 58 27 157 21 218 68 574 105 779 32 182 31 175 9
175 -10 0 -19 4 -19 9 0 5 -11 11 -24 13 -18 4 -30 -2 -45 -23 l-21 -28 22
-21 c17 -15 19 -23 10 -32 -9 -9 -15 -8 -28 8 -15 18 -15 18 -11 -8 3 -19 -1
-28 -15 -31 -10 -3 -21 0 -25 5 -4 7 -1 8 7 3 9 -5 10 -2 6 13 -4 12 -1 26 9
35 8 9 15 22 15 30 0 8 16 44 36 79 20 34 49 88 64 118 56 112 99 191 118 218
11 15 23 38 27 52 9 30 67 120 77 120 4 0 12 -8 17 -19z m-279 -584 c0 -4 -6
-2 -14 5 -8 7 -12 17 -9 22 5 8 23 -12 23 -27z m-86 -118 c-8 -13 -24 -1 -24
18 0 13 3 13 15 3 8 -7 12 -16 9 -21z m275 -188 c-15 -5 -22 6 -14 19 6 9 10
9 16 -1 5 -8 4 -15 -2 -18z m38 -63 c-2 -13 -4 -3 -4 22 0 25 2 35 4 23 2 -13
2 -33 0 -45z m24 -135 c-7 -13 -9 -6 -6 27 5 83 9 95 12 43 2 -29 0 -61 -6
-70z m-284 15 c-3 -8 -6 -5 -6 6 -1 11 2 17 5 13 3 -3 4 -12 1 -19z m277 -67
c3 -4 -3 -19 -14 -31 -21 -24 -27 -12 -10 21 12 21 16 23 24 10z m-25 -98 c0
-25 -1 -26 -9 -8 -12 27 -12 35 0 35 6 0 10 -12 9 -27z m-22 -55 c-3 -8 -6 -5
-6 6 -1 11 2 17 5 13 3 -3 4 -12 1 -19z m251 -30 c3 -36 -9 -72 -106 -322 -45
-115 -72 -154 -72 -104 0 19 112 373 141 446 13 33 33 22 37 -20z m-268 -30
c0 -21 -3 -29 -10 -22 -5 5 -7 19 -4 32 9 31 14 27 14 -10z m-47 -116 l-8 -22
-14 22 c-11 18 -11 20 4 15 9 -4 14 -3 10 3 -3 6 -3 16 2 23 11 18 16 -14 6
-41z m-28 -71 c-10 -40 -27 -9 -19 35 7 36 7 37 16 14 5 -14 6 -35 3 -49z
m-188 -53 c-3 -8 -6 -5 -6 6 -1 11 2 17 5 13 3 -3 4 -12 1 -19z"/>
<path d="M8296 9954 c-4 -9 -4 -19 -1 -22 2 -3 7 3 11 12 4 9 4 19 1 22 -2 3
-7 -3 -11 -12z"/>
<path d="M8331 9904 c0 -11 3 -14 6 -6 3 7 2 16 -1 19 -3 4 -6 -2 -5 -13z"/>
<path d="M8312 9875 c0 -16 2 -22 5 -12 2 9 2 23 0 30 -3 6 -5 -1 -5 -18z"/>
<path d="M8270 9855 c0 -8 4 -15 10 -15 5 0 7 7 4 15 -4 8 -8 15 -10 15 -2 0
-4 -7 -4 -15z"/>
<path d="M8321 9824 c0 -11 3 -14 6 -6 3 7 2 16 -1 19 -3 4 -6 -2 -5 -13z"/>
<path d="M8457 9533 c-7 -11 10 -40 18 -31 4 4 3 14 -3 24 -5 9 -12 12 -15 7z"/>
<path d="M8170 8651 c0 -6 4 -13 10 -16 6 -3 7 1 4 9 -7 18 -14 21 -14 7z"/>
<path d="M8171 8564 c0 -11 3 -14 6 -6 3 7 2 16 -1 19 -3 4 -6 -2 -5 -13z"/>
<path d="M5140 10329 c-85 -4 -200 -15 -255 -24 -191 -31 -390 -73 -382 -81 2
-2 82 11 178 30 96 19 224 39 284 45 171 17 445 32 479 26 48 -7 577 -37 582
-32 6 6 -82 14 -331 32 -225 16 -313 16 -555 4z"/>
<path d="M6095 10278 c33 -5 127 -20 209 -34 82 -13 150 -23 152 -21 10 10
-332 68 -385 66 -27 -1 -22 -4 24 -11z"/>
<path d="M10441 10263 c-1 -6 13 -52 29 -102 94 -279 178 -648 210 -916 6 -49
17 -130 25 -180 7 -49 21 -173 31 -275 10 -102 20 -176 22 -165 8 38 -66 675
-99 850 -23 125 -73 345 -94 420 -60 208 -123 395 -124 368z"/>
<path d="M6490 10209 c24 -10 301 -84 350 -94 51 -11 -38 24 -117 46 -43 11
-109 29 -148 40 -77 20 -129 25 -85 8z"/>
<path d="M10740 10149 c0 -5 5 -7 10 -4 6 3 10 8 10 11 0 2 -4 4 -10 4 -5 0
-10 -5 -10 -11z"/>
<path d="M6875 10102 c6 -5 21 -13 35 -17 17 -5 22 -4 15 3 -5 5 -21 13 -35
17 -17 5 -22 4 -15 -3z"/>
<path d="M3392 10055 c0 -16 2 -22 5 -12 2 9 2 23 0 30 -3 6 -5 -1 -5 -18z"/>
<path d="M6948 10073 c7 -3 16 -2 19 1 4 3 -2 6 -13 5 -11 0 -14 -3 -6 -6z"/>
<path d="M6986 10061 c10 -10 307 -121 311 -117 2 2 -27 15 -64 31 -38 15 -86
35 -108 45 -39 17 -133 50 -144 50 -3 0 -1 -4 5 -9z"/>
<path d="M3397 9963 c8 -52 13 -54 13 -5 0 23 -4 42 -9 42 -6 0 -7 -17 -4 -37z"/>
<path d="M7396 9901 c5 -5 50 -27 99 -49 50 -22 151 -70 225 -107 74 -37 131
-62 125 -57 -17 18 -434 222 -453 222 -3 0 -2 -4 4 -9z"/>
<path d="M4525 9428 c-22 -5 -100 -23 -174 -40 -157 -36 -235 -66 -272 -103
-27 -26 -95 -153 -87 -161 2 -2 26 32 52 77 26 44 58 86 69 94 45 28 193 71
402 116 79 17 114 27 90 27 -22 0 -58 -4 -80 -10z"/>
<path d="M2940 9245 c-38 -52 -70 -98 -70 -102 0 -10 40 38 85 102 19 28 42
60 51 73 9 12 14 22 10 22 -3 0 -37 -43 -76 -95z"/>
<path d="M3531 9304 c0 -11 3 -14 6 -6 3 7 2 16 -1 19 -3 4 -6 -2 -5 -13z"/>
<path d="M3551 9254 c0 -11 3 -14 6 -6 3 7 2 16 -1 19 -3 4 -6 -2 -5 -13z"/>
<path d="M3670 9226 c0 -8 4 -17 9 -20 5 -4 7 3 4 14 -6 23 -13 26 -13 6z"/>
<path d="M2839 9103 c-22 -46 -22 -50 1 -15 13 18 20 35 18 37 -3 3 -11 -7
-19 -22z"/>
<path d="M3968 9093 c-16 -18 -98 -177 -98 -189 0 -18 30 22 55 73 16 32 37
75 47 96 20 41 19 46 -4 20z"/>
<path d="M3330 9031 c-61 -34 -105 -63 -190 -126 -19 -14 -78 -58 -130 -97
-161 -119 -325 -263 -404 -353 -26 -30 -52 -55 -58 -55 -16 0 3 71 49 185 56
141 58 145 36 116 -34 -46 -88 -193 -106 -291 -3 -14 -8 -33 -12 -42 -4 -10
-4 -18 0 -18 4 0 65 56 134 124 134 131 287 261 473 399 123 91 242 167 263
167 7 0 23 -12 35 -27 12 -16 20 -23 17 -18 -20 55 -30 75 -35 74 -4 -1 -36
-17 -72 -38z"/>
<path d="M2787 9013 c-4 -3 -7 -11 -7 -17 0 -6 5 -5 12 2 6 6 9 14 7 17 -3 3
-9 2 -12 -2z"/>
<path d="M2732 8913 c-15 -32 -30 -60 -34 -63 -10 -8 -49 -102 -45 -107 4 -3
70 124 104 200 23 52 3 27 -25 -30z"/>
<path d="M3486 8918 c44 -73 153 -215 170 -222 20 -8 6 18 -43 74 -21 25 -58
71 -81 103 -23 31 -45 57 -48 57 -3 0 -2 -6 2 -12z"/>
<path d="M3810 8770 c-7 -16 -30 -46 -51 -65 -33 -29 -43 -34 -59 -25 -12 7
-20 7 -20 1 0 -17 39 -23 67 -9 26 12 91 113 80 124 -2 3 -10 -9 -17 -26z"/>
<path d="M4003 8660 c0 -36 2 -50 4 -32 2 17 2 47 0 65 -2 17 -4 3 -4 -33z"/>
<path d="M3985 8528 c-4 -35 -12 -74 -17 -87 -5 -14 -11 -70 -13 -125 -6 -152
-22 -367 -45 -596 -27 -273 -47 -680 -56 -1092 -5 -251 -10 -338 -19 -338 -34
0 -500 317 -559 380 -33 35 -74 65 -81 58 -3 -2 33 -38 80 -79 47 -41 143
-128 213 -194 203 -189 292 -269 322 -288 38 -24 48 -55 55 -177 3 -58 9 -126
11 -153 7 -59 -10 -68 -75 -43 -58 22 -66 23 -67 11 0 -5 33 -23 73 -38 54
-21 74 -34 78 -50 12 -55 25 -159 20 -167 -3 -4 -53 12 -112 37 -60 24 -128
51 -153 59 -25 8 -54 18 -65 23 -22 11 -107 38 -238 78 -63 19 -91 23 -99 15
-19 -19 -1 -42 34 -43 18 0 42 -4 53 -9 21 -9 17 -11 -25 -15 -53 -5 -156 -46
-189 -75 -18 -16 -42 -30 -52 -30 -18 0 -35 -17 -26 -26 2 -3 30 -9 62 -14 64
-10 76 -17 56 -29 -29 -18 2 -30 77 -28 42 1 103 -2 134 -6 48 -7 57 -12 60
-30 3 -20 10 -22 95 -27 87 -5 129 -19 104 -34 -30 -19 -4 -33 97 -55 59 -12
145 -34 191 -47 47 -13 86 -23 87 -21 1 1 -2 20 -7 42 -55 245 -71 328 -84
434 -47 395 -37 1343 20 1931 8 80 24 264 35 410 12 146 23 279 25 295 9 66
17 205 12 205 -3 0 -8 -28 -12 -62z m-286 -2187 c128 -80 151 -103 151 -148 0
-10 -6 -13 -16 -9 -33 13 -308 254 -278 244 5 -1 70 -41 143 -87z m-129 -800
c0 -38 -12 -45 -55 -31 -27 9 -35 17 -35 36 0 22 4 24 45 24 43 0 45 -1 45
-29z m162 -76 c0 -5 -5 -11 -11 -13 -6 -2 -11 4 -11 13 0 9 5 15 11 13 6 -2
11 -8 11 -13z m158 -53 c0 -12 -23 -32 -37 -32 -7 0 -13 9 -13 20 0 15 7 20
25 20 14 0 25 -4 25 -8z"/>
<path d="M10766 8485 c11 -277 26 -520 31 -525 8 -8 -8 325 -23 490 -13 139
-13 141 -8 35z"/>
<path d="M3836 8203 c-6 -14 -5 -15 5 -6 7 7 10 15 7 18 -3 3 -9 -2 -12 -12z"/>
<path d="M3752 8048 c-16 -21 -42 -76 -42 -90 0 -15 37 43 51 79 9 26 7 29 -9
11z"/>
<path d="M3673 7889 c-7 -18 -11 -35 -8 -37 6 -6 27 48 23 60 -2 5 -9 -6 -15
-23z"/>
<path d="M2885 7859 c-10 -55 -2 -58 11 -4 6 25 7 45 3 45 -4 0 -10 -18 -14
-41z"/>
<path d="M3590 7725 c-24 -47 -41 -88 -38 -90 2 -3 24 33 48 80 24 47 41 87
38 91 -3 3 -25 -33 -48 -81z"/>
<path d="M2861 7744 c-5 -22 -17 -88 -26 -149 -9 -60 -23 -148 -31 -195 -22
-130 -51 -398 -74 -675 -11 -137 -27 -324 -35 -415 -65 -744 -87 -2295 -41
-2935 8 -121 20 -339 26 -485 5 -146 12 -294 15 -330 32 -416 68 -854 80 -975
8 -82 17 -181 20 -220 14 -161 73 -574 134 -940 15 -85 48 -310 56 -372 5 -36
11 -53 21 -53 24 0 18 52 -46 400 -24 131 -69 430 -95 640 -3 25 -12 86 -20
135 -12 74 -35 319 -69 710 -3 33 -10 101 -15 150 -16 140 -54 736 -71 1090
-6 127 -15 272 -21 324 -5 52 -5 99 -1 103 5 5 19 -42 32 -104 44 -214 94
-353 198 -551 77 -146 104 -189 179 -287 l63 -81 0 -1261 c0 -694 2 -1263 4
-1265 1 -2 138 -2 304 -1 l300 3 -43 75 c-24 41 -59 104 -78 140 -19 36 -59
106 -87 155 -138 236 -289 503 -341 603 l-28 53 6 387 c7 413 7 576 -3 875 -7
209 -3 219 51 146 32 -44 194 -203 340 -335 50 -45 141 -128 204 -185 63 -57
162 -144 219 -194 107 -92 459 -405 612 -545 364 -333 484 -431 548 -447 15
-3 63 -1 107 5 140 21 165 17 360 -49 99 -34 188 -65 198 -71 27 -14 166 -36
275 -44 120 -8 151 3 262 95 156 130 547 532 728 747 28 34 75 71 140 110 247
148 399 270 618 497 203 210 315 347 481 589 24 34 50 71 58 82 8 12 49 68 89
126 41 58 82 114 91 125 15 19 16 18 10 -20 -10 -59 -33 -290 -75 -760 -11
-121 -25 -256 -30 -300 -6 -44 -20 -174 -31 -290 -11 -115 -28 -280 -39 -365
-18 -151 -20 -159 -85 -310 -37 -85 -88 -207 -114 -270 -146 -350 -199 -473
-237 -547 l-42 -83 178 0 178 0 6 28 c3 15 17 124 31 242 14 118 37 287 50
375 13 88 26 198 30 245 3 47 10 117 15 155 5 39 23 207 40 375 17 168 35 346
40 395 5 50 25 257 44 460 60 631 81 825 106 995 5 36 17 124 25 195 9 72 33
256 55 410 22 154 45 316 50 360 6 44 17 130 25 190 8 61 19 157 25 215 11
107 36 303 70 555 10 77 21 190 25 250 3 61 17 238 30 395 13 157 29 384 35
505 6 121 15 272 19 335 5 63 6 119 3 125 -13 22 -23 -64 -32 -293 -6 -134
-15 -297 -20 -363 -6 -65 -14 -173 -20 -239 -13 -157 -30 -303 -35 -308 -8 -9
-14 22 -35 193 -11 94 -23 177 -25 185 -2 8 -18 121 -35 250 -16 129 -39 296
-50 370 -12 74 -32 218 -45 320 -30 221 -64 433 -72 440 -7 7 -1 -53 25 -240
12 -85 33 -238 46 -340 25 -180 90 -666 141 -1040 47 -350 48 -358 31 -482
-33 -241 -48 -361 -71 -577 -14 -123 -27 -226 -30 -229 -11 -11 -19 12 -47
145 -16 76 -40 178 -54 228 -13 49 -32 117 -40 150 -44 167 -69 257 -129 450
-32 103 -83 291 -141 515 -55 209 -54 207 -124 450 -12 41 -37 125 -55 185
-19 61 -43 143 -55 184 -12 40 -23 71 -26 68 -7 -7 16 -95 91 -352 85 -291
105 -367 99 -377 -3 -4 -19 -12 -37 -17 -18 -5 -115 -35 -217 -66 -102 -32
-198 -60 -213 -62 l-29 -6 7 59 c4 33 11 77 15 99 10 48 44 375 60 570 6 77
15 181 20 230 5 50 12 167 16 260 4 94 11 172 15 176 5 3 3 45 -4 95 l-14 89
-7 -190 c-7 -204 -20 -413 -36 -590 -5 -60 -15 -168 -21 -240 -22 -276 -88
-762 -135 -1008 -13 -70 -24 -129 -24 -132 0 -3 -4 -5 -9 -5 -5 0 -12 30 -16
68 -25 277 -35 332 -56 332 -10 0 -11 -2 -28 -75 -10 -45 -77 -233 -127 -355
-32 -79 -157 -282 -247 -399 -48 -62 -87 -117 -87 -122 0 -5 -7 -9 -15 -9 -13
0 -14 7 -8 38 24 112 -3 577 -42 732 -8 30 -28 109 -45 175 -22 85 -33 156
-38 244 -4 71 -11 126 -17 128 -7 2 -10 -94 -7 -299 1 -167 -2 -348 -7 -403
-5 -55 -13 -154 -16 -220 -5 -110 -13 -188 -31 -332 l-7 -53 -42 0 -42 0 -7
373 c-7 372 -15 537 -62 1192 -41 579 -45 636 -60 749 -17 134 -18 201 -2 333
10 90 8 126 -6 112 -2 -2 -9 -47 -16 -99 -19 -160 -28 -221 -43 -315 -9 -49
-27 -178 -42 -285 -14 -107 -32 -231 -40 -275 -8 -44 -26 -154 -40 -245 -14
-91 -38 -239 -54 -330 -16 -91 -50 -286 -75 -434 -26 -148 -57 -312 -71 -365
-24 -94 -65 -310 -65 -340 0 -9 3 -11 9 -5 6 5 21 70 35 144 43 227 54 274 66
302 13 27 41 43 102 58 18 4 98 31 178 60 80 28 150 52 155 53 12 2 19 -282 7
-299 -4 -6 -47 -23 -97 -38 -94 -28 -324 -136 -346 -162 -19 -23 -3 -28 28 -7
79 55 377 171 408 160 12 -5 15 -27 15 -120 0 -128 -1 -130 -70 -146 -88 -20
-235 -86 -260 -116 -12 -14 -7 -15 46 -9 32 4 172 8 309 8 l250 1 3 -22 c4
-29 13 -29 40 2 26 29 36 30 168 10 135 -20 160 -20 167 4 4 18 11 19 63 15
33 -3 114 -14 182 -25 152 -24 144 -24 136 6 -6 23 -4 25 17 21 13 -3 51 -8
84 -11 33 -4 78 -12 99 -18 31 -9 41 -8 44 1 6 18 31 14 90 -13 63 -29 62 -29
62 -11 0 8 -14 26 -31 41 -17 14 -30 28 -28 30 6 6 91 -16 122 -31 36 -18 63
-18 70 0 7 17 -11 36 -35 36 -18 0 -28 7 -97 65 -61 52 -118 95 -127 95 -5 0
-20 9 -34 20 l-25 19 58 -6 c54 -6 57 -5 57 17 l0 22 -317 -7 c-175 -3 -362
-11 -417 -16 -54 -6 -101 -7 -104 -4 -4 3 2 22 13 41 123 213 116 203 159 216
39 12 40 12 13 16 -34 4 -36 -6 28 157 26 66 55 144 64 172 9 29 21 53 27 53
18 0 37 -236 33 -403 -2 -81 -1 -147 3 -147 12 0 28 37 28 67 0 15 9 71 20
123 45 219 70 361 80 450 6 52 15 112 21 132 9 36 10 37 122 71 61 19 137 42
167 50 194 53 222 59 229 51 4 -5 16 -45 25 -89 10 -44 43 -163 73 -265 30
-102 68 -232 85 -290 60 -207 80 -276 98 -335 11 -33 28 -100 40 -150 11 -49
29 -121 40 -160 36 -135 95 -420 93 -455 0 -8 -14 -109 -31 -225 -31 -210 -69
-485 -77 -560 -3 -22 -19 -141 -36 -265 l-30 -225 -57 -90 c-31 -49 -75 -115
-98 -145 -22 -30 -58 -80 -80 -111 -255 -367 -414 -557 -654 -782 -133 -124
-232 -201 -380 -294 -58 -36 -121 -76 -140 -89 -69 -44 -368 -206 -515 -279
-332 -163 -630 -278 -1035 -399 -107 -32 -146 -41 -275 -66 -27 -5 -72 -14
-99 -19 -73 -16 -119 -4 -189 48 -34 25 -64 48 -67 51 -3 3 -43 39 -90 80
-105 93 -274 245 -405 366 -120 110 -353 317 -443 394 -36 30 -110 95 -165
144 -55 50 -152 137 -216 194 -323 289 -578 564 -672 723 -116 197 -195 366
-228 489 -105 386 -118 495 -126 995 -6 393 5 860 23 930 18 72 55 259 58 300
l4 40 -14 -45 c-7 -25 -19 -78 -26 -118 -19 -115 -33 -80 -26 67 3 69 11 239
16 376 10 230 36 579 60 800 5 50 12 131 15 180 11 161 46 508 60 600 8 50 17
108 20 130 3 22 13 92 24 155 19 118 20 152 2 84z m3782 -661 c3 -43 11 -130
16 -193 5 -63 15 -191 21 -285 6 -93 15 -208 20 -255 14 -128 40 -523 40 -611
0 -52 -4 -80 -13 -88 -15 -12 -152 -53 -270 -81 -65 -15 -79 -15 -84 -4 -3 7
5 69 16 136 12 68 35 202 52 298 16 96 37 213 45 260 43 244 89 557 114 760 6
52 13 105 16 118 9 45 21 20 27 -55z m350 -1430 c6 -32 -1 -55 -17 -50 -13 4
-20 42 -12 63 9 23 23 16 29 -13z m-243 -87 c0 -40 -3 -44 -37 -59 -80 -35
-363 -125 -368 -118 -8 14 7 110 19 119 6 5 29 14 51 20 42 11 199 54 275 76
25 7 48 11 53 9 4 -2 7 -23 7 -47z m265 -3 c25 -66 53 -307 37 -317 -6 -3 -32
-9 -58 -13 l-47 -6 7 169 c5 113 11 171 19 176 20 13 34 9 42 -9z m49 -370 c4
-15 10 -187 7 -219 -1 -14 -130 -39 -141 -28 -5 5 -4 59 3 124 11 106 14 115
37 127 37 19 88 17 94 -4z m483 -296 c36 -28 -46 -38 -86 -11 -17 12 -20 19
-10 24 15 10 79 1 96 -13z m326 -26 c4 0 7 -6 7 -12 0 -14 -72 -7 -78 8 -3 12
14 13 71 4z m-813 -17 c0 -17 -22 -14 -28 4 -2 7 3 12 12 12 9 0 16 -7 16 -16z
m-50 -3481 c-230 -264 -658 -680 -762 -742 -34 -21 -53 -24 -127 -24 -120 1
-271 30 -376 73 -47 19 -243 80 -259 80 -26 0 -18 19 12 26 213 48 656 203
952 334 145 64 244 114 545 276 22 12 42 20 44 18 2 -2 -11 -20 -29 -41z"/>
<path d="M4187 7368 c-9 -68 -26 -181 -36 -253 -11 -71 -25 -209 -31 -305 -6
-96 -20 -281 -31 -410 -29 -334 -38 -615 -28 -840 12 -290 18 -321 55 -326 9
-1 49 -13 88 -25 125 -38 160 -48 223 -60 88 -16 180 -74 204 -129 31 -69 43
-43 35 76 -6 88 -4 104 8 104 41 0 68 -27 113 -112 26 -48 52 -88 60 -88 7 0
13 2 13 4 0 2 -22 45 -49 97 -27 52 -65 144 -84 204 -53 163 -58 175 -72 175
-17 0 -25 -125 -18 -283 4 -81 2 -119 -4 -112 -11 10 -56 150 -118 365 -116
397 -202 806 -240 1141 -8 74 -20 166 -26 204 -37 248 -50 493 -34 638 4 31 3
57 -2 57 -4 0 -16 -55 -26 -122z m12 -370 c35 -302 44 -374 62 -493 10 -71 28
-179 39 -240 45 -249 52 -296 47 -302 -7 -6 -74 31 -173 98 -53 36 -73 55 -77
76 -6 31 -4 62 18 308 8 94 21 253 30 355 19 245 26 300 39 300 2 0 9 -46 15
-102z m59 -1023 c102 -68 106 -72 118 -120 7 -27 11 -52 8 -56 -6 -10 -161 80
-235 137 -58 44 -59 46 -59 95 l0 50 31 -18 c17 -10 79 -50 137 -88z m-89 -84
c36 -27 101 -68 144 -91 43 -23 84 -52 92 -64 11 -17 67 -214 92 -323 7 -31
-3 -28 -67 17 -112 78 -283 192 -306 202 -33 15 -36 29 -42 160 -4 111 -1 148
14 148 4 0 36 -22 73 -49z m-38 -294 c90 -47 366 -243 385 -272 14 -22 74
-187 74 -205 0 -17 -33 1 -125 69 -49 37 -115 83 -145 102 -257 167 -240 149
-240 244 0 81 5 87 51 62z m568 -299 c28 -82 27 -91 -8 -69 -22 14 -37 131
-16 131 2 0 13 -28 24 -62z"/>
<path d="M5268 7470 c-8 -19 -85 -423 -98 -510 -40 -275 -66 -610 -81 -1035
-19 -565 -9 -927 26 -917 12 3 11 34 -4 122 -30 181 2 1048 59 1580 5 47 9 98
9 113 1 16 5 26 11 22 6 -4 10 -113 10 -293 1 -303 16 -580 50 -902 29 -281
52 -453 75 -560 22 -104 37 -150 48 -150 5 0 7 10 3 23 -44 158 -89 478 -116
822 -25 318 -31 479 -31 920 l-1 470 27 127 c14 71 25 140 23 155 -3 19 -6 23
-10 13z"/>
<path d="M3431 7401 c-18 -34 -31 -67 -29 -73 2 -6 19 17 37 51 18 34 31 67
29 73 -2 6 -19 -17 -37 -51z"/>
<path d="M3372 7264 c-7 -8 -12 -20 -9 -27 2 -7 9 -2 16 11 15 28 11 36 -7 16z"/>
<path d="M3346 7203 c-6 -14 -5 -15 5 -6 7 7 10 15 7 18 -3 3 -9 -2 -12 -12z"/>
<path d="M7974 7200 c4 -14 12 -43 17 -65 6 -22 14 -44 20 -49 5 -6 10 -19 10
-30 1 -15 2 -17 6 -5 4 16 -40 156 -53 168 -4 3 -4 -5 0 -19z"/>
<path d="M3282 7068 c-16 -35 -42 -92 -57 -128 -15 -36 -45 -103 -67 -150 -42
-90 -118 -283 -173 -440 -18 -52 -41 -113 -50 -135 -10 -22 -28 -76 -41 -120
-13 -44 -35 -116 -48 -160 -84 -267 -116 -379 -116 -398 1 -37 15 -2 50 123
73 255 181 598 201 633 5 10 18 44 29 75 10 31 29 84 43 117 13 33 39 98 56
145 31 79 47 119 135 318 44 98 77 182 72 182 -2 0 -17 -28 -34 -62z"/>
<path d="M8037 7000 c3 -19 14 -51 24 -70 19 -35 19 -35 13 -5 -4 17 -15 48
-25 70 l-18 40 6 -35z"/>
<path d="M10792 6873 c-1 -67 -6 -155 -12 -195 -5 -40 -16 -138 -25 -218 -18
-164 -36 -268 -65 -385 -59 -239 -114 -458 -131 -522 -10 -40 -28 -107 -39
-148 -11 -41 -30 -110 -41 -152 -12 -43 -23 -87 -26 -98 -4 -20 -4 -20 8 -1
15 24 54 155 114 381 25 94 56 211 70 260 23 82 44 170 80 329 36 157 78 590
73 751 l-4 120 -2 -122z"/>
<path d="M952 6940 c0 -14 2 -19 5 -12 2 6 2 18 0 25 -3 6 -5 1 -5 -13z"/>
<path d="M927 6835 c-9 -39 -21 -104 -27 -145 -5 -41 -15 -106 -21 -145 -6
-39 -11 -208 -11 -385 -1 -289 1 -330 25 -495 58 -395 100 -587 227 -1035 11
-41 34 -111 50 -155 16 -44 36 -105 44 -135 8 -30 18 -65 22 -77 4 -15 2 -23
-5 -23 -20 0 -318 286 -828 794 l-403 401 0 -2718 0 -2717 1256 0 1256 0 -6
23 c-3 13 -10 65 -16 117 -36 316 -151 860 -272 1280 -28 96 -59 207 -70 245
-33 123 -94 315 -127 410 -11 31 -111 341 -174 540 -51 160 -148 433 -201 563
-25 63 -46 118 -46 124 0 5 -19 56 -41 111 -42 103 -108 293 -201 577 -28 85
-65 198 -83 250 -115 340 -223 709 -254 870 -11 58 -22 112 -25 120 -6 16 -57
328 -81 495 -27 194 -35 366 -25 572 11 213 34 447 52 529 17 80 3 88 -15 9z
m-872 -1505 c3 -6 -1 -7 -9 -4 -18 7 -21 14 -7 14 6 0 13 -4 16 -10z m66 -67
c13 -16 12 -17 -3 -4 -10 7 -18 15 -18 17 0 8 8 3 21 -13z m149 -145 c0 -6 -6
-5 -15 2 -8 7 -15 14 -15 16 0 2 7 1 15 -2 8 -4 15 -11 15 -16z m94 -94 c5
-14 4 -15 -9 -4 -17 14 -19 20 -6 20 5 0 12 -7 15 -16z m79 -79 c20 -19 32
-35 27 -35 -10 0 -33 21 -59 53 -23 28 -6 19 32 -18z m57 -49 c0 -3 -4 -8 -10
-11 -5 -3 -10 -1 -10 4 0 6 5 11 10 11 6 0 10 -2 10 -4z m490 -481 c11 -13 10
-14 -4 -9 -9 3 -16 10 -16 15 0 13 6 11 20 -6z"/>
<path d="M5578 6374 c-9 -14 -28 -131 -27 -164 1 -17 3 -19 6 -7 2 9 8 17 13
17 10 0 13 -17 35 -160 9 -58 27 -152 40 -210 13 -58 36 -157 50 -220 15 -63
37 -149 50 -190 13 -41 35 -122 49 -180 48 -190 123 -420 137 -420 12 0 12 2
-11 62 -21 59 -56 175 -105 353 -18 66 -50 179 -70 250 -38 138 -48 181 -94
420 -42 215 -60 331 -63 400 -2 33 -6 55 -10 49z"/>
<path d="M10115 6358 c-2 -7 -14 -51 -25 -98 -12 -47 -32 -121 -45 -165 -12
-44 -30 -114 -39 -155 -20 -90 -45 -198 -51 -225 -43 -173 -98 -425 -114 -515
-45 -257 -59 -326 -116 -565 -71 -301 -116 -532 -201 -1025 -14 -80 -29 -170
-35 -200 -12 -73 -52 -344 -89 -605 -16 -115 -36 -259 -45 -320 -8 -60 -22
-164 -31 -230 -15 -122 -56 -388 -79 -525 -64 -373 -116 -690 -135 -815 -12
-82 -30 -199 -40 -260 -10 -60 -16 -112 -14 -113 7 -9 27 88 54 263 30 193 60
375 85 520 23 124 96 556 101 595 3 19 14 89 24 155 11 66 27 176 36 245 57
449 123 898 173 1192 l18 108 75 77 c42 43 100 107 130 143 55 66 168 216 168
224 0 2 16 28 36 57 36 54 144 263 169 329 65 170 87 236 105 315 12 49 25
106 30 125 23 95 32 228 21 315 -15 107 -37 168 -84 229 -62 81 -109 106 -203
106 -59 0 -60 1 -43 65 15 60 50 205 59 250 33 151 54 238 88 368 22 81 35
147 30 147 -5 0 -11 -6 -13 -12z m-31 -848 c30 -11 99 -72 127 -111 52 -73 72
-272 44 -439 -31 -192 -50 -257 -133 -470 -36 -93 -148 -315 -195 -385 -76
-113 -141 -200 -191 -255 -137 -151 -159 -172 -168 -158 -4 7 -6 23 -3 36 3
13 15 76 26 140 25 145 80 419 115 572 14 63 36 162 49 220 12 58 34 150 48
205 14 55 31 136 38 179 8 49 19 86 30 97 37 37 156 51 208 25 30 -16 67 -67
96 -133 18 -40 35 -56 35 -32 0 19 -52 116 -76 143 -54 58 -136 75 -222 47
-23 -8 -45 -12 -47 -9 -3 3 1 36 9 74 8 38 22 107 31 154 10 47 22 91 27 98
12 14 115 16 152 2z"/>
<path d="M5542 6150 c0 -19 2 -27 5 -17 2 9 2 25 0 35 -3 9 -5 1 -5 -18z"/>
<path d="M5526 6088 c-3 -13 -10 -102 -16 -198 -6 -96 -12 -188 -14 -205 -3
-16 0 -91 5 -165 25 -361 41 -548 48 -580 15 -59 12 -4 -11 242 -25 270 -30
640 -10 812 13 103 12 143 -2 94z"/>
<path d="M10792 5675 c-1 -60 -6 -157 -12 -215 -9 -104 -30 -439 -50 -826 -6
-110 -15 -239 -20 -285 -5 -46 -16 -158 -25 -249 -9 -91 -22 -185 -30 -209 -8
-24 -12 -60 -9 -80 7 -51 -74 -732 -100 -841 -8 -30 -17 -75 -21 -100 -16
-110 -61 -315 -121 -555 -36 -143 -74 -296 -84 -340 -21 -93 -35 -143 -97
-350 -25 -82 -58 -195 -73 -250 -67 -241 -101 -354 -125 -415 -8 -19 -33 -100
-55 -180 -38 -131 -77 -256 -199 -643 -46 -142 -44 -137 -32 -137 10 0 85 215
132 375 17 61 53 180 80 265 110 356 130 424 184 610 31 107 60 206 65 220 8
22 53 180 96 335 7 28 39 151 69 275 31 124 65 254 75 290 10 36 26 99 34 140
9 41 25 113 36 160 39 174 120 679 135 843 7 74 20 88 28 30 12 -92 -12 -1643
-33 -2093 -21 -440 -57 -906 -96 -1211 -13 -108 -24 -205 -24 -217 0 -22 3
-22 140 -22 l140 0 0 827 0 826 -57 56 -58 56 2 440 c1 243 9 565 17 719 9
154 16 319 16 368 l0 88 40 44 40 44 0 346 -1 347 -37 -31 c-41 -34 -62 -39
-56 -12 12 56 36 363 49 634 8 172 22 428 31 568 8 140 14 302 12 360 l-4 105
-2 -110z m-92 -3991 c0 -8 -5 -12 -10 -9 -6 4 -8 11 -5 16 9 14 15 11 15 -7z
m-13 -146 c-2 -13 -4 -3 -4 22 0 25 2 35 4 23 2 -13 2 -33 0 -45z"/>
<path d="M10431 5093 c-14 -48 -14 -60 -2 -47 11 10 26 84 18 84 -4 0 -11 -17
-16 -37z"/>
<path d="M4875 4912 c-34 -21 -60 -50 -53 -57 3 -3 18 5 34 17 23 19 41 23 94
23 36 0 76 -4 90 -8 20 -7 18 -4 -8 14 -46 30 -118 36 -157 11z"/>
<path d="M5773 4713 c-18 -2 -33 -9 -33 -14 0 -5 12 -6 26 -3 15 4 74 7 131 8
57 1 93 4 81 8 -25 7 -153 7 -205 1z"/>
<path d="M6065 4600 c55 -9 102 -16 104 -14 10 9 -118 34 -167 33 -23 -1 2 -8
63 -19z"/>
<path d="M5086 4279 c-2 -8 -12 -41 -21 -74 -10 -33 -35 -115 -57 -183 -42
-129 -47 -178 -8 -70 13 35 26 68 30 73 4 6 24 63 45 128 28 88 35 121 27 129
-8 8 -12 8 -16 -3z"/>
<path d="M4952 3600 c0 -14 2 -19 5 -12 2 6 2 18 0 25 -3 6 -5 1 -5 -13z"/>
<path d="M4966 3495 c8 -37 14 -45 14 -19 0 10 -5 26 -10 34 -8 11 -9 7 -4
-15z"/>
<path d="M4985 3420 c2 -19 11 -91 20 -160 9 -69 20 -129 26 -135 7 -7 9 -2 5
15 -3 14 -12 77 -21 141 -9 64 -20 129 -25 145 -9 28 -10 28 -5 -6z"/>
<path d="M6640 2700 c-11 -7 -5 -10 23 -10 20 0 37 5 37 10 0 13 -40 13 -60 0z"/>
<path d="M4342 2618 c7 -73 36 -171 86 -294 23 -58 36 -74 88 -114 114 -88
370 -176 619 -215 55 -8 129 -21 165 -29 60 -13 81 -13 68 -1 -2 3 -45 12 -94
20 -393 70 -598 131 -711 213 -38 28 -43 37 -57 104 -28 137 -30 128 22 128
28 0 57 -8 79 -22 l35 -21 -11 21 c-16 30 -28 35 -100 41 l-65 6 -23 94 c-12
51 -21 97 -18 101 2 4 24 2 47 -5 127 -38 505 -96 608 -94 25 1 -7 7 -70 14
-175 19 -506 79 -605 109 -74 23 -72 25 -63 -56z"/>
<path d="M6545 2680 c-13 -5 -14 -9 -5 -9 8 0 24 4 35 9 13 5 14 9 5 9 -8 0
-24 -4 -35 -9z"/>
<path d="M6774 2656 c0 -18 -12 -60 -26 -92 -14 -32 -32 -74 -39 -93 -63 -154
-82 -166 -168 -101 -59 45 -89 49 -135 21 -64 -40 -195 -80 -296 -91 l-65 -7
64 -2 c75 -1 160 19 250 61 78 35 124 38 160 9 77 -62 128 -64 163 -5 11 19
25 33 30 32 5 -2 22 -36 38 -77 l29 -73 -102 -48 c-158 -74 -329 -135 -437
-155 -19 -3 -64 -12 -100 -20 -114 -24 -232 -44 -330 -55 -165 -19 -241 -33
-232 -42 5 -5 73 0 158 12 433 58 746 139 959 248 136 69 176 103 201 169 16
40 16 55 6 126 -8 57 -19 89 -37 113 -14 18 -25 37 -25 41 0 10 -52 63 -61 63
-3 0 -5 -15 -5 -34z"/>
<path d="M6345 2639 c-49 -10 -254 -41 -495 -75 -19 -3 -186 -8 -370 -12 -304
-6 -323 -7 -210 -14 213 -14 759 23 920 61 19 5 69 14 110 21 41 6 84 16 95
20 25 11 3 10 -50 -1z"/>
<path d="M9041 414 c0 -11 3 -14 6 -6 3 7 2 16 -1 19 -3 4 -6 -2 -5 -13z"/>
</g>
</svg>
